<svg xmlns="http://www.w3.org/2000/svg" width="1725" height="1080" viewBox="0 0 1725 1080">
  <defs>
    <style>
      .cls-1 {
        fill: #f8f7f3;
        fill-rule: evenodd;
      }
    </style>
  </defs>
  <path id="Color_Fill_1" data-name="Color Fill 1" class="cls-1" d="M2,1L1722,2q0.495,520.448,1,1041-6.495-1.005-13-2c-0.97-60.793-34.04-101.1-28-166,4.42-47.569,13-91.651,13-147,0-19.672.75-39.654-5-54-22.32-55.674-112.91-48.578-115-121,15.03-23.873,35.33-41.394,44-72q2.505-23.5,5-47c1.93-10.8,5.5-27.5,2-40-13.86-49.485-79.98-116-147-88-14.79,6.18-29.08,13.114-38,25-8.76,11.672-12.12,26.023-20,39-7.74,12.753-19.91,22.253-26,37-14.24,34.507-21.23,68.947-35,101q-24,47.495-48,95-17.505,26-35,52-11.505,51.995-23,104c-16.88,70.428-26.6,135.4-43,203-3.33,13.73-10.53,71.69-18,77-25.05,15.65-156.92,16.03-199,9q-65.994.495-132,1c-17.777,0-42.629,2.87-53-5-11.322-8.59-24.649-99.652-35-120-8.318-16.352-38.3-48.424-53-59-12.531-9.017-30.75-9.681-39-23l-23-67-33-92c-29.661-86.617-48.518-141.745-161-141,0.336-45.386,15.293-80.284,8-126-11.643-72.985-62.539-148.919-154-109-35.582,15.53-77.291,86.268-84,131l3,33q-1.5,25.5-3,51c1.584,10.248,5.674,19.812,2,27l-42,27c-38.355,23.888-74.912,34.436-94,78C60.422,746.611,72.311,867.587,9,940l-8-9Z"/>
</svg>
